<svg width="859" height="250" viewBox="0 0 859 250" fill="none" xmlns="http://www.w3.org/2000/svg">
<path d="M135.266 121.005C163.371 121.005 186.153 98.2221 186.153 70.1176C186.153 42.0135 163.371 19.2305 135.266 19.2305C107.162 19.2305 84.3789 42.0135 84.3789 70.1176C84.3789 98.2221 107.162 121.005 135.266 121.005Z" fill="url(#paint0_linear_2171_36)"/>
<path d="M136.507 145.884L204.661 214.025L268.031 150.485L269.398 149.114C269.398 149.114 269.407 149.101 269.411 149.093C270.115 148.129 270.527 147.004 270.527 145.811C270.527 144.517 270.052 143.307 269.241 142.305C268.808 141.881 268.366 141.473 267.929 141.078C231.07 107.157 173.914 108.171 138.268 144.114L136.507 145.884Z" fill="white" fill-opacity="0.8"/>
<path d="M136.516 145.878L67.2115 215.191L2.54246 150.522L1.15026 149.138L1.13753 149.117C0.420205 148.145 0 147.007 0 145.802C0 144.49 0.483872 143.272 1.31155 142.258C1.75298 141.829 2.19865 141.417 2.64857 141.018C40.1912 106.756 98.4128 107.784 134.724 144.087L136.516 145.878Z" fill="#E1E7EF"/>
<path d="M204.663 214.024L203.309 215.378C165.665 253.023 104.629 253.023 66.9844 215.378L136.518 145.879L204.663 214.024Z" fill="#E1E7EF"/>
<path d="M405.035 155.481C394.9 155.481 386.4 154.01 379.535 151.068C372.778 148.017 367.602 144.094 364.006 139.299C360.519 134.395 358.666 129.273 358.448 123.933C358.448 122.953 358.775 122.135 359.429 121.481C360.083 120.828 360.9 120.501 361.881 120.501H376.429C377.846 120.501 378.881 120.828 379.535 121.481C380.298 122.026 380.951 122.735 381.496 123.606C382.15 125.677 383.403 127.747 385.256 129.818C387.108 131.779 389.615 133.414 392.775 134.722C396.044 136.029 400.131 136.683 405.035 136.683C412.881 136.683 418.711 135.376 422.525 132.76C426.448 130.145 428.41 126.603 428.41 122.135C428.41 118.975 427.375 116.469 425.304 114.616C423.234 112.654 420.019 110.911 415.66 109.385C411.41 107.751 405.743 106.061 398.66 104.318C390.487 102.356 383.621 100.013 378.064 97.2891C372.615 94.4557 368.474 90.9141 365.641 86.6641C362.916 82.4141 361.554 77.0198 361.554 70.4814C361.554 64.1609 363.243 58.5487 366.621 53.6448C370.109 48.741 375.012 44.8724 381.333 42.0391C387.762 39.2057 395.391 37.7891 404.217 37.7891C411.301 37.7891 417.567 38.7698 423.016 40.7314C428.464 42.5839 432.987 45.0903 436.583 48.2506C440.179 51.3019 442.903 54.6256 444.756 58.2218C446.718 61.7089 447.753 65.1416 447.862 68.5198C447.862 69.3916 447.535 70.2089 446.881 70.9718C446.336 71.6256 445.519 71.9525 444.429 71.9525H429.227C428.355 71.9525 427.483 71.7346 426.612 71.2987C425.74 70.8628 425.032 70.0455 424.487 68.8468C423.833 65.4685 421.708 62.5807 418.112 60.1833C414.516 57.7859 409.884 56.5871 404.217 56.5871C398.333 56.5871 393.592 57.6769 389.996 59.8564C386.4 62.0359 384.602 65.4141 384.602 69.991C384.602 73.0423 385.474 75.6032 387.217 77.6737C389.07 79.6352 391.958 81.3788 395.881 82.9044C399.913 84.4301 405.198 86.0647 411.737 87.8083C421 89.8788 428.573 92.2762 434.458 95.0006C440.342 97.725 444.647 101.212 447.371 105.462C450.096 109.603 451.458 114.888 451.458 121.318C451.458 128.51 449.496 134.667 445.573 139.789C441.759 144.802 436.365 148.67 429.391 151.395C422.416 154.119 414.298 155.481 405.035 155.481ZM474.114 153.847C473.024 153.847 472.098 153.465 471.335 152.703C470.572 151.94 470.191 151.013 470.191 149.924V43.5102C470.191 42.3115 470.572 41.3307 471.335 40.5679C472.098 39.8051 473.024 39.4237 474.114 39.4237H513.998C525.005 39.4237 534.05 41.1128 541.133 44.491C548.325 47.8692 553.719 52.882 557.316 59.5294C561.021 66.1769 562.928 74.2955 563.037 83.8852C563.255 88.6801 563.364 92.9301 563.364 96.6352C563.364 100.34 563.255 104.536 563.037 109.222C562.819 119.356 560.966 127.747 557.479 134.395C553.992 140.933 548.707 145.837 541.623 149.106C534.649 152.267 525.713 153.847 514.816 153.847H474.114ZM492.912 135.049H513.998C520.101 135.049 525.059 134.177 528.873 132.433C532.687 130.69 535.466 127.911 537.21 124.097C539.062 120.174 540.043 115.052 540.152 108.731C540.261 105.462 540.316 102.629 540.316 100.231C540.425 97.725 540.425 95.273 540.316 92.8756C540.316 90.3692 540.261 87.5359 540.152 84.3756C539.934 75.4397 537.7 68.8468 533.45 64.5968C529.2 60.3468 522.444 58.2218 513.181 58.2218H492.912V135.049ZM589.048 153.847C587.958 153.847 587.032 153.465 586.269 152.703C585.506 151.94 585.125 151.013 585.125 149.924V43.5102C585.125 42.3115 585.506 41.3307 586.269 40.5679C587.032 39.8051 587.958 39.4237 589.048 39.4237H659.993C661.192 39.4237 662.173 39.8051 662.935 40.5679C663.698 41.3307 664.076 42.3115 664.076 43.5102V54.9525C664.076 56.1512 663.698 57.132 662.935 57.8948C662.173 58.5487 661.192 58.8756 659.993 58.8756H607.519V89.9333H656.724C657.923 89.9333 658.903 90.3147 659.666 91.0775C660.429 91.8403 660.807 92.8211 660.807 94.0198V105.462C660.807 106.552 660.429 107.478 659.666 108.241C658.903 109.004 657.923 109.385 656.724 109.385H607.519V149.924C607.519 151.013 607.137 151.94 606.375 152.703C605.612 153.465 604.631 153.847 603.432 153.847H589.048Z" fill="url(#paint1_linear_2171_36)"/>
<path d="M373.564 230.769C373.094 230.769 372.718 230.628 372.436 230.346C372.154 230.064 372.013 229.688 372.013 229.218V183.032C372.013 182.515 372.154 182.115 372.436 181.833C372.718 181.551 373.094 181.41 373.564 181.41H388.583C393.566 181.41 397.468 182.139 400.288 183.596C403.109 185.053 405.107 187.216 406.282 190.083C407.504 192.904 408.139 196.359 408.186 200.449C408.233 202.564 408.256 204.444 408.256 206.09C408.256 207.688 408.233 209.545 408.186 211.66C408.092 215.985 407.457 219.558 406.282 222.378C405.107 225.199 403.133 227.314 400.359 228.724C397.585 230.088 393.777 230.769 388.936 230.769H373.564ZM376.455 226.538H388.583C392.344 226.538 395.306 226.045 397.468 225.058C399.677 224.024 401.252 222.402 402.192 220.192C403.179 217.936 403.697 214.974 403.743 211.308C403.79 209.897 403.814 208.675 403.814 207.641C403.814 206.56 403.814 205.502 403.814 204.468C403.814 203.434 403.79 202.211 403.743 200.801C403.649 195.63 402.451 191.822 400.147 189.378C397.844 186.886 393.872 185.641 388.231 185.641H376.455V226.538ZM432.777 231.474C429.393 231.474 426.549 230.769 424.245 229.359C421.989 227.949 420.25 226.021 419.027 223.577C417.852 221.133 417.218 218.406 417.124 215.397C417.077 214.692 417.053 213.705 417.053 212.436C417.053 211.167 417.077 210.179 417.124 209.474C417.218 206.419 417.852 203.692 419.027 201.295C420.25 198.851 421.989 196.923 424.245 195.513C426.549 194.102 429.393 193.397 432.777 193.397C436.162 193.397 438.983 194.102 441.239 195.513C443.543 196.923 445.282 198.851 446.457 201.295C447.679 203.692 448.338 206.419 448.431 209.474C448.479 210.179 448.502 211.167 448.502 212.436C448.502 213.705 448.479 214.692 448.431 215.397C448.338 218.406 447.679 221.133 446.457 223.577C445.282 226.021 443.543 227.949 441.239 229.359C438.983 230.769 436.162 231.474 432.777 231.474ZM432.777 227.385C436.068 227.385 438.748 226.327 440.816 224.211C442.885 222.096 443.989 219.04 444.13 215.045C444.177 214.34 444.201 213.47 444.201 212.436C444.201 211.402 444.177 210.532 444.13 209.827C443.989 205.784 442.885 202.729 440.816 200.66C438.748 198.545 436.068 197.487 432.777 197.487C429.487 197.487 426.808 198.545 424.739 200.66C422.671 202.729 421.566 205.784 421.425 209.827C421.378 210.532 421.354 211.402 421.354 212.436C421.354 213.47 421.378 214.34 421.425 215.045C421.566 219.04 422.671 222.096 424.739 224.211C426.808 226.327 429.487 227.385 432.777 227.385ZM472.026 231.474C468.736 231.474 465.939 230.84 463.635 229.57C461.332 228.254 459.569 226.374 458.347 223.929C457.172 221.485 456.537 218.594 456.443 215.256C456.396 214.551 456.372 213.611 456.372 212.436C456.372 211.261 456.396 210.32 456.443 209.615C456.537 206.231 457.172 203.34 458.347 200.942C459.569 198.498 461.332 196.641 463.635 195.372C465.939 194.056 468.736 193.397 472.026 193.397C474.518 193.397 476.657 193.75 478.443 194.455C480.276 195.113 481.781 196.006 482.956 197.135C484.131 198.216 485.024 199.415 485.635 200.731C486.247 202.047 486.576 203.34 486.622 204.609C486.67 205.079 486.529 205.455 486.199 205.737C485.87 206.019 485.494 206.16 485.071 206.16H484.084C483.614 206.16 483.261 206.066 483.026 205.878C482.838 205.643 482.627 205.243 482.392 204.679C481.404 202 480.042 200.143 478.302 199.109C476.609 198.027 474.518 197.487 472.026 197.487C468.83 197.487 466.174 198.474 464.058 200.449C461.99 202.376 460.885 205.549 460.744 209.968C460.65 211.613 460.65 213.258 460.744 214.904C460.885 219.322 461.99 222.519 464.058 224.493C466.174 226.421 468.83 227.385 472.026 227.385C474.518 227.385 476.609 226.867 478.302 225.833C480.042 224.752 481.404 222.872 482.392 220.192C482.627 219.628 482.838 219.252 483.026 219.064C483.261 218.829 483.614 218.711 484.084 218.711H485.071C485.494 218.711 485.87 218.852 486.199 219.135C486.529 219.417 486.67 219.793 486.622 220.263C486.576 221.297 486.364 222.331 485.988 223.365C485.612 224.399 485.024 225.41 484.225 226.397C483.473 227.385 482.533 228.254 481.404 229.006C480.276 229.758 478.913 230.346 477.315 230.769C475.763 231.239 474.001 231.474 472.026 231.474ZM507.574 231.474C505.13 231.474 503.015 231.145 501.228 230.487C499.489 229.829 498.055 229.053 496.927 228.16C495.799 227.22 494.952 226.303 494.388 225.41C493.871 224.517 493.589 223.835 493.542 223.365C493.495 222.848 493.659 222.472 494.036 222.237C494.412 221.955 494.765 221.814 495.093 221.814H496.151C496.433 221.814 496.668 221.861 496.856 221.955C497.092 222.049 497.374 222.308 497.702 222.731C498.313 223.53 499.018 224.306 499.818 225.058C500.617 225.763 501.627 226.327 502.85 226.75C504.119 227.173 505.694 227.385 507.574 227.385C510.395 227.385 512.722 226.844 514.555 225.763C516.388 224.681 517.305 223.083 517.305 220.968C517.305 219.652 516.929 218.594 516.177 217.795C515.472 216.995 514.249 216.29 512.51 215.679C510.771 215.068 508.42 214.434 505.459 213.776C502.497 213.07 500.217 212.224 498.619 211.237C497.068 210.25 496.01 209.122 495.446 207.852C494.882 206.536 494.6 205.126 494.6 203.622C494.6 201.976 495.07 200.378 496.01 198.827C496.951 197.229 498.337 195.936 500.17 194.949C502.051 193.915 504.401 193.397 507.222 193.397C509.525 193.397 511.476 193.703 513.074 194.314C514.72 194.925 516.059 195.677 517.093 196.57C518.127 197.417 518.88 198.263 519.35 199.109C519.867 199.955 520.149 200.636 520.196 201.154C520.243 201.624 520.102 202 519.773 202.282C519.444 202.564 519.068 202.705 518.645 202.705H517.587C517.211 202.705 516.906 202.635 516.67 202.493C516.435 202.306 516.224 202.07 516.036 201.788C515.566 201.036 515.002 200.331 514.343 199.673C513.685 199.015 512.792 198.498 511.664 198.122C510.583 197.699 509.102 197.487 507.222 197.487C504.401 197.487 502.309 198.075 500.946 199.25C499.583 200.378 498.901 201.835 498.901 203.622C498.901 204.656 499.183 205.572 499.747 206.372C500.311 207.124 501.369 207.829 502.92 208.487C504.472 209.098 506.728 209.756 509.69 210.461C512.698 211.12 515.072 211.942 516.811 212.929C518.55 213.87 519.773 214.998 520.478 216.314C521.23 217.63 521.606 219.181 521.606 220.968C521.606 222.848 521.066 224.588 519.984 226.186C518.95 227.784 517.376 229.077 515.26 230.064C513.192 231.004 510.63 231.474 507.574 231.474Z" fill="url(#paint2_linear_2171_36)"/>
<defs>
<linearGradient id="paint0_linear_2171_36" x1="89.7437" y1="99.3587" x2="179.487" y2="48.0766" gradientUnits="userSpaceOnUse">
<stop stop-color="#C7D3E7"/>
<stop offset="1" stop-color="white" stop-opacity="0.53"/>
</linearGradient>
<linearGradient id="paint1_linear_2171_36" x1="855.769" y1="-76.9225" x2="217.948" y2="227.565" gradientUnits="userSpaceOnUse">
<stop offset="0.172476" stop-color="white" stop-opacity="0.79"/>
<stop offset="1" stop-color="#ABBFDD"/>
</linearGradient>
<linearGradient id="paint2_linear_2171_36" x1="1096.45" y1="133.333" x2="776.993" y2="644.641" gradientUnits="userSpaceOnUse">
<stop offset="0.172476" stop-color="white" stop-opacity="0.65"/>
<stop offset="1" stop-color="#C7D3E7"/>
</linearGradient>
</defs>
</svg>
